<?xml version="1.0" standalone="no"?>
<!DOCTYPE svg PUBLIC "-//W3C//DTD SVG 20010904//EN"
 "http://www.w3.org/TR/2001/REC-SVG-20010904/DTD/svg10.dtd">
<svg version="1.0" xmlns="http://www.w3.org/2000/svg"
 width="300.000000pt" height="300.000000pt" viewBox="0 0 300.000000 300.000000"
 preserveAspectRatio="xMidYMid meet">
<metadata>
Created by potrace 1.10, written by Peter Selinger 2001-2011
</metadata>
<g transform="translate(0.000000,300.000000) scale(0.100000,-0.100000)"
fill="#000000" stroke="none">
<path d="M205 1825 l0 -465 1298 0 1297 0 0 465 0 465 -1297 0 -1298 0 0 -465z
m854 425 c386 0 701 -4 701 -8 0 -4 -11 -9 -24 -10 -13 -1 -49 -11 -79 -22
-90 -34 -183 -149 -196 -245 -3 -22 -6 -89 -5 -150 0 -90 5 -121 24 -170 32
-83 117 -167 189 -189 84 -25 144 -29 218 -17 179 32 282 171 284 388 1 99 -7
144 -41 218 -29 66 -113 150 -159 161 -14 4 -30 9 -36 13 -5 3 -21 7 -35 9
-63 8 -34 21 56 24 161 5 493 -6 459 -15 -136 -37 -199 -105 -200 -214 0 -52
4 -67 30 -105 17 -23 53 -58 80 -75 28 -18 55 -36 60 -40 6 -5 28 -17 49 -28
22 -11 57 -36 78 -56 32 -30 38 -42 38 -77 0 -44 -17 -68 -55 -78 -24 -6 -79
-1 -105 10 -19 8 -45 55 -62 114 -7 24 -23 53 -36 65 -22 21 -23 21 -57 3 -31
-17 -35 -24 -36 -60 -2 -103 1 -147 10 -165 46 -85 277 -126 396 -70 71 33
134 110 136 166 0 16 1 16 9 -2 11 -26 12 -212 1 -219 -12 -8 -2473 -9 -2493
-1 -12 5 -18 18 -18 36 0 32 11 37 34 14 21 -22 193 -21 224 1 30 21 28 52 -9
90 -32 33 -33 58 -3 99 13 17 26 20 99 19 47 -1 91 -7 99 -13 7 -6 16 -27 19
-47 5 -32 2 -40 -29 -69 -31 -30 -33 -35 -23 -59 15 -32 43 -38 178 -34 99 3
105 4 124 29 l19 27 -34 53 c-19 30 -40 68 -46 84 -11 32 -89 237 -102 270 -4
11 -15 40 -25 65 -10 25 -21 54 -25 65 -5 11 -19 49 -32 83 -27 76 -60 112
-99 112 -44 0 -75 -37 -110 -130 -17 -47 -55 -146 -84 -220 -28 -74 -65 -171
-80 -215 -17 -48 -42 -93 -62 -115 l-32 -35 -1 362 0 363 23 5 c32 7 81 11 89
8 3 -2 321 -3 707 -3z m1699 -255 c1 -137 0 -261 -4 -275 -5 -23 -8 -20 -25
25 -31 82 -111 153 -252 225 -40 20 -77 59 -77 81 0 11 9 28 21 40 18 18 28
20 63 15 38 -6 75 -36 76 -60 0 -19 52 -76 69 -76 31 0 54 37 59 94 7 91 -13
114 -158 175 -19 7 5 10 100 8 l125 -2 3 -250z m-2103 168 c7 -29 110 -302
187 -496 33 -83 59 -134 75 -147 44 -35 26 -42 -115 -43 -120 -2 -132 0 -132
16 0 10 8 17 18 17 27 0 62 29 62 51 0 11 -8 47 -17 79 l-18 60 -127 0 -126 0
-22 -66 c-26 -79 -19 -108 30 -119 21 -5 30 -12 28 -23 -3 -13 -20 -16 -111
-16 -96 -1 -107 1 -107 17 0 10 7 20 15 24 23 8 37 39 161 365 62 165 116 303
118 307 3 4 20 5 40 3 27 -3 36 -9 41 -29z m1298 13 c57 -25 122 -90 146 -146
34 -78 47 -186 33 -275 -29 -186 -141 -285 -323 -285 -177 0 -292 101 -319
282 -13 92 -1 203 31 279 27 62 105 134 168 154 59 19 210 14 264 -9z m602 13
c22 -6 52 -20 68 -31 25 -18 27 -24 27 -89 0 -61 -2 -69 -19 -69 -12 0 -20 9
-24 28 -24 112 -155 160 -222 80 -55 -65 -24 -117 121 -197 111 -61 149 -94
178 -153 42 -84 30 -162 -34 -227 -79 -78 -286 -82 -385 -6 l-35 26 0 90 0 89
30 0 c25 0 30 -4 30 -23 0 -33 30 -118 49 -141 39 -46 130 -59 191 -28 42 21
60 53 60 109 0 59 -42 104 -173 180 -57 34 -116 76 -130 93 -59 70 -54 157 13
221 57 54 162 74 255 48z"/>
<path d="M1135 2232 c-290 -3 -274 5 -275 -138 0 -76 3 -94 18 -107 40 -36 84
-11 103 57 11 40 53 66 73 46 6 -6 10 -102 10 -266 l-1 -256 -31 -27 c-36 -30
-41 -60 -14 -84 15 -14 41 -17 140 -17 114 0 122 1 136 22 24 33 20 54 -16 82
l-33 25 -1 223 c0 123 1 240 4 260 7 64 61 58 82 -9 24 -74 67 -94 107 -50 18
19 21 34 19 108 -1 94 -15 123 -59 130 -12 2 -130 3 -262 1z m285 -134 c0 -98
0 -98 -25 -98 -21 0 -25 5 -25 30 0 43 -26 89 -56 100 -14 6 -43 10 -65 10
l-39 0 0 -299 c0 -299 0 -300 22 -315 12 -9 31 -16 41 -16 12 0 17 -6 15 -17
-3 -14 -20 -16 -131 -17 -107 -1 -127 1 -127 14 0 8 15 22 33 30 l32 15 3 303
2 302 -40 0 c-77 0 -120 -44 -120 -122 0 -12 -8 -18 -25 -18 -25 0 -25 0 -25
98 l0 97 265 0 265 0 0 -97z"/>
<path d="M537 1917 c-26 -78 -49 -146 -50 -150 -1 -4 44 -9 101 -10 56 -1 102
-1 102 0 0 1 -20 63 -45 137 -25 75 -45 143 -45 151 0 41 -19 2 -63 -128z m78
-49 c8 -28 15 -55 15 -60 0 -4 -18 -8 -40 -8 -33 0 -40 3 -40 20 0 26 30 100
41 100 4 0 15 -23 24 -52z"/>
<path d="M1730 2128 c-84 -43 -123 -139 -122 -298 2 -190 82 -310 207 -310
128 0 196 102 197 295 2 165 -46 275 -135 316 -55 25 -93 24 -147 -3z m140
-38 c30 -16 45 -34 72 -87 31 -63 32 -72 32 -177 0 -135 -19 -193 -77 -240
-31 -25 -48 -31 -82 -30 -86 2 -144 75 -165 209 -23 146 18 289 96 330 39 20
77 19 124 -5z"/>
<path d="M342 1234 c-59 -29 -88 -65 -108 -131 -39 -129 12 -267 113 -309 84
-36 195 -3 238 70 28 49 30 56 12 56 -6 0 -18 -13 -25 -30 -20 -45 -67 -73
-121 -74 -95 -2 -145 67 -145 199 0 57 5 90 18 115 63 122 173 133 213 20 27
-76 43 -65 43 30 0 78 -9 98 -28 63 -9 -15 -12 -15 -45 0 -50 24 -105 21 -165
-9z"/>
<path d="M805 1248 c-45 -135 -159 -416 -175 -433 -11 -12 -17 -25 -13 -28 10
-11 131 -8 138 3 3 6 -5 14 -19 20 -29 11 -33 36 -15 89 l11 32 86 -3 86 -3
13 -44 c14 -49 5 -71 -28 -71 -11 0 -19 -7 -19 -15 0 -12 17 -15 90 -15 50 0
90 3 90 7 0 4 -9 16 -19 27 -11 12 -55 115 -99 231 -66 173 -84 211 -101 213
-12 2 -23 -3 -26 -10z m50 -183 c16 -49 28 -92 27 -94 -5 -9 -132 -5 -129 4
44 142 63 193 68 187 3 -4 19 -47 34 -97z"/>
<path d="M1060 1246 c0 -6 10 -16 23 -21 22 -10 22 -12 22 -205 0 -193 0 -195
-22 -205 -13 -5 -23 -15 -23 -22 0 -10 23 -13 85 -13 66 0 85 3 85 14 0 7 -9
16 -20 19 -26 7 -40 46 -40 116 l0 58 69 6 c119 10 166 47 166 132 0 61 -18
88 -75 111 -44 19 -270 27 -270 10z m202 -26 c47 -14 68 -43 68 -97 0 -57 -31
-92 -87 -100 -65 -9 -73 4 -73 107 0 47 3 90 7 93 9 10 42 8 85 -3z"/>
<path d="M1430 1243 c0 -7 9 -13 20 -13 10 0 23 -8 28 -17 13 -25 14 -360 2
-384 -6 -10 -20 -19 -30 -19 -11 0 -20 -7 -20 -15 0 -12 16 -15 84 -15 91 0
113 11 69 32 l-28 13 0 195 c0 193 0 194 23 206 41 20 24 28 -63 29 -62 0 -85
-3 -85 -12z"/>
<path d="M1634 1251 c-2 -2 -4 -31 -4 -63 0 -51 2 -58 20 -58 15 0 20 7 20 28
0 37 28 62 68 62 l32 0 -2 -202 c-3 -202 -3 -203 -25 -206 -13 -2 -23 -10 -23
-18 0 -11 18 -14 85 -14 67 0 85 3 85 14 0 8 -10 16 -22 18 -23 3 -23 4 -26
206 l-2 202 30 0 c46 0 68 -16 76 -55 3 -20 12 -35 20 -35 10 0 14 16 14 63
l0 62 -171 0 c-94 0 -173 -2 -175 -4z"/>
<path d="M2175 1248 c-54 -156 -159 -416 -175 -433 -11 -12 -17 -25 -13 -28 3
-4 37 -7 75 -7 70 0 88 13 43 30 -28 11 -32 37 -14 89 l11 31 84 0 c83 0 85
-1 95 -27 20 -52 16 -76 -13 -91 -48 -23 -31 -32 62 -32 50 0 90 3 90 7 0 4
-9 16 -19 27 -11 12 -56 116 -99 231 -67 175 -83 211 -101 213 -12 2 -23 -3
-26 -10z m25 -95 c0 -10 13 -55 29 -100 16 -46 28 -83 27 -84 0 0 -31 -1 -69
-2 -41 -1 -66 2 -65 8 2 6 17 52 33 103 28 86 45 115 45 75z"/>
<path d="M2440 1245 c0 -6 10 -15 23 -20 22 -10 22 -12 22 -205 0 -193 0 -195
-22 -205 -13 -5 -23 -15 -23 -22 0 -10 38 -13 160 -13 l160 0 0 65 c0 58 -2
65 -20 65 -15 0 -20 -7 -20 -25 0 -42 -36 -65 -101 -65 -43 0 -58 4 -63 16
-10 27 -7 354 4 375 6 10 20 19 30 19 11 0 20 6 20 13 0 9 -24 12 -85 12 -51
0 -85 -4 -85 -10z"/>
<path d="M200 720 c0 -20 9 -20 1300 -20 1291 0 1300 0 1300 20 0 20 -9 20
-1300 20 -1291 0 -1300 0 -1300 -20z"/>
</g>
</svg>
